<svg xmlns="http://www.w3.org/2000/svg" version="1.1" xmlns:xlink="http://www.w3.org/1999/xlink" xmlns:svgjs="http://svgjs.com/svgjs" width="1440" height="560" preserveAspectRatio="none" viewBox="0 0 1440 560"><g mask="url(&quot;#SvgjsMask1117&quot;)" fill="none"><rect width="1440" height="560" x="0" y="0" fill="rgba(254, 255, 255, 1)"></rect><use xlink:href="#SvgjsG1126" transform="translate(0, 0)" fill="rgba(3, 142, 123, 1)"></use><use xlink:href="#SvgjsG1126" transform="translate(0, 480)" fill="rgba(3, 142, 123, 1)"></use><use xlink:href="#SvgjsG1126" transform="translate(480, 0)" fill="rgba(3, 142, 123, 1)"></use><use xlink:href="#SvgjsG1126" transform="translate(480, 480)" fill="rgba(3, 142, 123, 1)"></use><use xlink:href="#SvgjsG1126" transform="translate(960, 0)" fill="rgba(3, 142, 123, 1)"></use><use xlink:href="#SvgjsG1126" transform="translate(960, 480)" fill="rgba(3, 142, 123, 1)"></use></g><defs><mask id="SvgjsMask1117"><rect width="1440" height="560" fill="#ffffff"></rect></mask><g id="SvgjsG1123"><path d="M7.945 2.35L0 7.479h1.862V13.677H6.372V8.755h3.134V13.677h4.513V7.479H15.874L7.945 2.35z" fill-rule="evenodd"></path></g><g id="SvgjsG1119"><path d="M8.828 1.361C8.627 0.58 7.913 0 7.069 0 6.062 0 5.248 0.81 5.248 1.815c0 0.17 0.02 0.324 0.063 0.477h0.73c0.054 0.126 0.112 0.198 0.112 0.198a1.216 1.216 0 0 0 0.999 0.522 1.222 1.222 0 0 0 1.223-1.222c0-0.155 0.04-0.295-0.026-0.428h0.48v-0.001z m-0.051 10.853c-0.191 0.195-0.454 0.342-0.752 0.343V8.603l2.737-0.787 0.685 1.351L8.777 12.214z"></path><path d="M6.48 3.166a0.979 0.979 0 0 0-0.735-0.327c-0.311 0-0.59 0.144-0.769 0.37l-2.171 3.318a0.972 0.972 0 0 0-0.139 0.504 0.984 0.984 0 0 0 0.436 0.819l2.914 1.617V12.218A0.705 0.705 0 0 0 6.72 12.924c0.387 0 0.703-0.316 0.703-0.706V8.782s0.093-0.547-0.529-0.847l-1.817-0.95 1.324-2.022 0.703 1.104c0.14 0.222 0.33 0.31 0.502 0.306l1.806-0.006c0.734 0 0.734-0.954 0-0.951H7.949L6.48 3.166z m7.985 4.511c0.029 0.028 0.047 0.064 0.047 0.11 0 0.086-0.074 0.159-0.16 0.159-0.024 0-0.04 0-0.058-0.007-0.312-0.133-0.51-0.216-0.872-0.216-0.241 0-0.536 0.083-0.878 0.362l-0.317-0.626c0.395-0.119 0.72-0.224 1.058-0.224 0.541 0 0.826 0.112 1.178 0.444z"></path><path d="M2.349 8.158l3.058 1.687 0.007 0.677L1.922 8.599c-0.253-0.13-0.593-0.206-0.834-0.207-0.361 0-0.56 0.083-0.87 0.217-0.019 0.007-0.035 0.007-0.058 0.007A0.161 0.161 0 0 1 0 8.458c0-0.047 0.018-0.083 0.047-0.111 0.354-0.332 0.715-0.444 1.256-0.444 0.277 0 0.614 0.032 1.048 0.256z m0.283 6.204c0.996 0 1.803-0.807 1.804-1.805S3.629 10.752 2.632 10.752c-0.996 0-1.803 0.806-1.802 1.805 0 0.997 0.807 1.805 1.803 1.805zM0.031 12.557c0-1.437 1.166-2.605 2.601-2.605 1.44 0 2.605 1.167 2.605 2.605 0 1.437-1.165 2.604-2.605 2.604C1.197 15.161 0.031 13.994 0.031 12.557z m13.364 1.805A1.803 1.803 0 0 0 15.2 12.557 1.804 1.804 0 0 0 13.395 10.752c-0.993 0-1.8 0.807-1.801 1.805 0 0.998 0.807 1.805 1.801 1.805z m-2.6-1.805c0-1.437 1.163-2.605 2.6-2.605C14.832 9.952 16 11.12 16 12.557s-1.168 2.604-2.605 2.603c-1.437 0-2.6-1.166-2.6-2.603z m2.027-2.975L11.558 7.053a0.981 0.981 0 0 0-0.86-0.512h-0.824a0.293 0.293 0 0 0-0.291 0.295c0 0.163 0.13 0.292 0.292 0.292l0.825-0.005c0.14 0 0.295 0.094 0.353 0.23l1.191 2.429 0.58-0.201z"></path></g><g id="SvgjsG1122"><path d="M14.159 8.927V5.732c0-0.453 0.371-0.822 0.828-0.822a0.822 0.822 0 0 1 0.821 0.822V10.107c0 0.605-0.218 1.189-0.608 1.646L12.472 14.65c-0.271 0.255-0.337 0.481-0.337 0.823V16h-2.97l-0.003-1.255c0-0.478-0.039-1.117 0.559-1.743l3.462-3.476a0.654 0.654 0 0 1 0.456-0.184 0.657 0.657 0 0 1 0.657 0.655c0 0.156-0.055 0.308-0.156 0.427l-1.67 1.789c-0.108 0.127-0.291 0.366-0.382 0.659-0.049 0.152-0.063 0.301-0.066 0.47h0.537c0.002-0.121 0.011-0.218 0.04-0.308 0.053-0.169 0.157-0.321 0.237-0.419l1.694-1.86c0.213-0.215 0.33-0.493 0.33-0.786 0-0.439-0.264-0.843-0.7-1.042z m-12.51 0V5.732c0-0.453-0.371-0.822-0.827-0.822A0.822 0.822 0 0 0 0 5.732V10.107c0 0.605 0.218 1.189 0.608 1.646l2.729 2.897c0.27 0.255 0.337 0.481 0.337 0.822V16h2.969l0.003-1.255c0-0.478 0.039-1.117-0.559-1.743L2.626 9.526a0.654 0.654 0 0 0-0.457-0.184 0.657 0.657 0 0 0-0.5 1.083l1.669 1.788c0.108 0.127 0.291 0.366 0.382 0.659 0.049 0.152 0.063 0.301 0.066 0.471h-0.537c-0.002-0.121-0.011-0.219-0.04-0.309-0.053-0.169-0.157-0.321-0.236-0.418L1.278 10.755c-0.213-0.215-0.33-0.493-0.33-0.786 0-0.439 0.264-0.843 0.701-1.042z m6.568-7.512a0.705 0.705 0 0 0 0-1.41 0.705 0.705 0 0 0 0 1.41z m-3.825 0.004c-0.395 0-0.715-0.317-0.715-0.71 0-0.392 0.32-0.709 0.715-0.709s0.716 0.317 0.716 0.709c0 0.393-0.321 0.71-0.716 0.71z"></path><path d="M11.225 3.646a0.494 0.494 0 1 0 0.988 0 0.494 0.494 0 1 0-0.988 0"></path><path d="M12.435 4.384h-1.334c-0.006 0-0.446-0.04-0.446-0.04l-0.559-1.947c-0.225-0.784-0.883-0.76-0.882-0.76h-1.808s-0.657-0.024-0.882 0.76l-0.276 0.959-0.275-0.959c-0.226-0.784-0.882-0.76-0.881-0.76H3.693s-0.658-0.024-0.883 0.76l-0.563 1.962c-0.053 0.184 0.047 0.323 0.208 0.369 0.16 0.046 0.324-0.035 0.365-0.181l0.549-1.913 0.267 0L2.835 5.946h0.708v2.352c0 0.194 0.156 0.352 0.35 0.351 0.194 0 0.352-0.158 0.352-0.351v-2.352h0.297v2.352c0 0.194 0.156 0.352 0.35 0.351a0.352 0.352 0 0 0 0.352-0.351v-2.352h0.696l-0.793-3.312 0.266 0.001 0.543 1.892c0.009 0.032 0.023 0.062 0.042 0.087 0.053 0.08 0.146 0.125 0.249 0.122 0.103 0.003 0.195-0.041 0.249-0.12 0.022-0.028 0.037-0.061 0.046-0.098l0.54-1.884 0.246 0v5.595a0.415 0.415 0 0 0 0.415 0.414 0.413 0.413 0 0 0 0.413-0.414V5.046h0.306v3.183a0.413 0.413 0 0 0 0.413 0.414 0.415 0.415 0 0 0 0.417-0.414v-5.595l0.267 0 0.525 1.913c0.028 0.094 0.107 0.156 0.202 0.18 0.004 0.001 0.006 0.003 0.009 0.004 0.083 0.019 0.469 0.128 0.753 0.209v3.47a0.291 0.291 0 0 0 0.581 0V6.676h0.228v1.734c0 0.16 0.13 0.29 0.29 0.29s0.292-0.13 0.292-0.29v-3.242h0.223v1.098c0 0.12 0.098 0.218 0.217 0.218 0.119 0 0.214-0.097 0.214-0.218v-1.249c0-0.35-0.308-0.634-0.658-0.634z"></path></g><g id="SvgjsG1120"><path d="M8 2.022C3.815 2.022 0.422 4.579 0.422 7.733c0 1.544 0.814 2.944 2.135 3.972l0.003 3.427 3.961-1.798c0.479 0.071 0.973 0.11 1.48 0.11 4.185 0 7.578-2.557 7.578-5.711 0-3.154-3.392-5.711-7.577-5.711zM4.81 8.933a1.067 1.067 0 1 1 0-2.133 1.067 1.067 0 0 1 0 2.133z m3.186 0a1.067 1.067 0 1 1 0-2.133 1.067 1.067 0 0 1 0 2.133z m3.143 0c-0.589 0-1.067-0.478-1.067-1.066s0.477-1.067 1.067-1.067 1.067 0.478 1.067 1.067a1.067 1.067 0 0 1-1.067 1.066z"></path></g><g id="SvgjsG1121"><path d="M7.996 16h-0.001c-2.137-0.001-4.145-0.834-5.655-2.345C0.829 12.142-0.002 10.132 0 7.995-0.002 5.861 0.828 3.853 2.338 2.342 3.848 0.832 5.855 0 7.99 0h0.01C10.136 0 12.146 0.832 13.656 2.342c1.51 1.51 2.342 3.518 2.344 5.653-0.002 2.139-0.835 4.148-2.346 5.66-1.512 1.511-3.521 2.344-5.658 2.345z m-0.006-14.161c-1.644 0-3.189 0.64-4.351 1.804-1.162 1.163-1.801 2.708-1.8 4.352-0.001 1.648 0.639 3.196 1.802 4.359 1.163 1.164 2.709 1.805 4.354 1.807 3.398-0.002 6.163-2.768 6.167-6.166-0.002-3.394-2.765-6.155-6.16-6.155h-0.01z"></path><path d="M8.692 7.143V5.35c0.511 0.037 0.91 0.544 0.957 1.062h1.697c0.002-1.741-1.581-2.657-2.672-2.724v-1.175H7.056v1.175c-0.476 0.004-2.622 0.611-2.62 2.558-0.003 1.733 1.545 2.206 2.62 2.358v1.959c-0.783-0.222-0.926-0.824-1.036-1.323h-1.723c0.11 1.949 1.823 2.856 2.759 2.995v1.202h1.636v-1.184c1.294-0.07 2.827-1.187 2.829-2.716-0.002-1.758-1.529-2.256-2.829-2.393zM7.064 6.855c-1.152-0.018-1.175-1.281 0-1.488v1.488z m1.645 3.717V8.883c1.427 0.039 1.586 1.462 0 1.689z"></path></g><g id="SvgjsG1118"><path d="M1.135 8.57h1.423c0.108 0 0.208 0.054 0.268 0.142 0 0 0.271 0.41 0.542 0.816 0.15-1.331 0.673-5.983 0.673-5.983a0.322 0.322 0 0 1 0.3-0.284c0.155-0.01 0.294 0.094 0.331 0.246 0 0 0.682 2.858 1.004 4.208l0.427-1.21a0.322 0.322 0 0 1 0.301-0.214c0.134-0.001 0.256 0.083 0.302 0.21 0 0 0.633 1.72 0.76 2.067h1.236c0.108 0 0.208 0.054 0.267 0.142 0 0 0.271 0.41 0.542 0.816 0.15-1.331 0.673-5.983 0.673-5.983a0.321 0.321 0 0 1 0.631-0.039s0.681 2.857 1.004 4.209c0.212-0.6 0.428-1.208 0.427-1.208a0.32 0.32 0 0 1 0.602-0.004s0.634 1.72 0.76 2.067h1.262l0.067-0.128c0.613-1.055 1.061-3.009 1.061-4.432C16 2.193 14.678 0 12.102 0c-3.679 0-4.152 3.447-4.152 3.447S7.494 0.017 3.818 0.017C1.333 0.017 0 2.13 0 4.009c0 1.622 0.71 3.625 1.074 4.448l0.061 0.113z"></path><path d="M13.385 9.211a0.321 0.321 0 0 1-0.301-0.21S12.8 8.229 12.554 7.56c-0.23 0.654-0.491 1.394-0.492 1.394a0.318 0.318 0 0 1-0.319 0.213 0.318 0.318 0 0 1-0.295-0.245L10.618 5.44l-0.567 5.036a0.321 0.321 0 0 1-0.243 0.275 0.32 0.32 0 0 1-0.342-0.133s-0.778-1.17-0.935-1.406H7.243c-0.134 0-0.254-0.085-0.3-0.21l-0.531-1.442-0.492 1.395A0.318 0.318 0 0 1 5.6 9.166a0.32 0.32 0 0 1-0.296-0.245s-0.458-1.921-0.83-3.48c-0.221 1.964-0.566 5.034-0.566 5.034a0.321 0.321 0 0 1-0.586 0.141s-0.778-1.17-0.935-1.405H1.483c2.301 4.086 6.468 6.779 6.468 6.779S12.194 13.298 14.531 9.211h-1.146z"></path></g><g id="SvgjsG1124"><path d="M5.534 5.272L8.008 0l2.474 5.272 5.534 0.845-4.004 4.103 0.945 5.795L8.008 13.279 3.06 16.015l0.945-5.795L0.001 6.117z"></path></g><g id="SvgjsG1125"><path d="M7.275 1.252h5.267l0.848 0.856c0.153 0.155 0.15 0.264 0 0.42l-1.034 1.034-0.606-0.606-0.606 0.606-0.597-0.597-0.582 0.58-0.606-0.606-0.792 0.792H7.275V1.251z m5.655 8.143l-0.986-2.545c-0.184-0.487-0.587-0.901-1.349-0.905h-5.178c-0.758 0.003-1.162 0.418-1.349 0.905l-0.985 2.545C2.691 9.445 1.998 9.905 2 10.776v3.24h0.961v1.033c-0.002 1.274 1.802 1.259 1.802 0v-1.035h6.486v1.034c0.004 1.26 1.808 1.275 1.81 0v-1.034h0.961V10.776c-0.003-0.871-0.696-1.331-1.09-1.381z m-9.04 2.665c-0.461 0.002-0.834-0.383-0.832-0.856-0.002-0.476 0.371-0.86 0.832-0.856 0.46-0.004 0.833 0.381 0.832 0.856 0.001 0.473-0.372 0.857-0.832 0.856z m4.12-2.689H4.108l0.743-2.004c0.09-0.284 0.229-0.488 0.559-0.493h5.201c0.324 0.005 0.464 0.208 0.558 0.493l0.744 2.004H8.01z m4.12 2.689c-0.464 0.002-0.837-0.383-0.84-0.856 0.003-0.476 0.376-0.86 0.84-0.856 0.456-0.004 0.829 0.381 0.832 0.856-0.003 0.473-0.376 0.857-0.832 0.856z"></path><path d="M5.433 0C4.069-0.003 2.964 1.113 2.961 2.488c0.003 1.378 1.108 2.494 2.472 2.496 1.361-0.002 2.466-1.118 2.464-2.496C7.899 1.113 6.794-0.003 5.433 0z m-1.082 3.142c-0.365-0.003-0.658-0.3-0.655-0.662-0.003-0.368 0.29-0.664 0.655-0.662 0.358-0.002 0.652 0.294 0.654 0.662-0.003 0.362-0.296 0.659-0.654 0.662z"></path></g><g id="SvgjsG1126"><use xlink:href="#SvgjsG1118" transform="translate(0, 0) scale(2)" fill="rgba(3, 142, 123, 1)"></use><use xlink:href="#SvgjsG1119" transform="translate(0, 48) scale(2)" fill="rgba(3, 142, 123, 1)"></use><use xlink:href="#SvgjsG1120" transform="translate(0, 96) scale(2)" fill="rgba(3, 142, 123, 1)"></use><use xlink:href="#SvgjsG1121" transform="translate(0, 144) scale(2)" fill="rgba(3, 142, 123, 1)"></use><use xlink:href="#SvgjsG1122" transform="translate(0, 192) scale(2)" fill="rgba(3, 142, 123, 1)"></use><use xlink:href="#SvgjsG1119" transform="translate(0, 240) scale(2)" fill="rgba(3, 142, 123, 1)"></use><use xlink:href="#SvgjsG1119" transform="translate(0, 288) scale(2)" fill="rgba(3, 142, 123, 1)"></use><use xlink:href="#SvgjsG1123" transform="translate(0, 336) scale(2)" fill="rgba(3, 142, 123, 1)"></use><use xlink:href="#SvgjsG1123" transform="translate(0, 384) scale(2)" fill="rgba(3, 142, 123, 1)"></use><use xlink:href="#SvgjsG1118" transform="translate(0, 432) scale(2)" fill="rgba(3, 142, 123, 1)"></use><use xlink:href="#SvgjsG1123" transform="translate(48, 0) scale(2)" fill="rgba(3, 142, 123, 1)"></use><use xlink:href="#SvgjsG1119" transform="translate(48, 48) scale(2)" fill="rgba(3, 142, 123, 1)"></use><use xlink:href="#SvgjsG1119" transform="translate(48, 96) scale(2)" fill="rgba(3, 142, 123, 1)"></use><use xlink:href="#SvgjsG1123" transform="translate(48, 144) scale(2)" fill="rgba(3, 142, 123, 1)"></use><use xlink:href="#SvgjsG1124" transform="translate(48, 192) scale(2)" fill="rgba(3, 142, 123, 1)"></use><use xlink:href="#SvgjsG1118" transform="translate(48, 240) scale(2)" fill="rgba(3, 142, 123, 1)"></use><use xlink:href="#SvgjsG1122" transform="translate(48, 288) scale(2)" fill="rgba(3, 142, 123, 1)"></use><use xlink:href="#SvgjsG1122" transform="translate(48, 336) scale(2)" fill="rgba(3, 142, 123, 1)"></use><use xlink:href="#SvgjsG1120" transform="translate(48, 384) scale(2)" fill="rgba(3, 142, 123, 1)"></use><use xlink:href="#SvgjsG1123" transform="translate(48, 432) scale(2)" fill="rgba(3, 142, 123, 1)"></use><use xlink:href="#SvgjsG1124" transform="translate(96, 0) scale(2)" fill="rgba(3, 142, 123, 1)"></use><use xlink:href="#SvgjsG1124" transform="translate(96, 48) scale(2)" fill="rgba(3, 142, 123, 1)"></use><use xlink:href="#SvgjsG1118" transform="translate(96, 96) scale(2)" fill="rgba(3, 142, 123, 1)"></use><use xlink:href="#SvgjsG1123" transform="translate(96, 144) scale(2)" fill="rgba(3, 142, 123, 1)"></use><use xlink:href="#SvgjsG1118" transform="translate(96, 192) scale(2)" fill="rgba(3, 142, 123, 1)"></use><use xlink:href="#SvgjsG1124" transform="translate(96, 240) scale(2)" fill="rgba(3, 142, 123, 1)"></use><use xlink:href="#SvgjsG1125" transform="translate(96, 288) scale(2)" fill="rgba(3, 142, 123, 1)"></use><use xlink:href="#SvgjsG1124" transform="translate(96, 336) scale(2)" fill="rgba(3, 142, 123, 1)"></use><use xlink:href="#SvgjsG1123" transform="translate(96, 384) scale(2)" fill="rgba(3, 142, 123, 1)"></use><use xlink:href="#SvgjsG1125" transform="translate(96, 432) scale(2)" fill="rgba(3, 142, 123, 1)"></use><use xlink:href="#SvgjsG1119" transform="translate(144, 0) scale(2)" fill="rgba(3, 142, 123, 1)"></use><use xlink:href="#SvgjsG1118" transform="translate(144, 48) scale(2)" fill="rgba(3, 142, 123, 1)"></use><use xlink:href="#SvgjsG1119" transform="translate(144, 96) scale(2)" fill="rgba(3, 142, 123, 1)"></use><use xlink:href="#SvgjsG1118" transform="translate(144, 144) scale(2)" fill="rgba(3, 142, 123, 1)"></use><use xlink:href="#SvgjsG1125" transform="translate(144, 192) scale(2)" fill="rgba(3, 142, 123, 1)"></use><use xlink:href="#SvgjsG1121" transform="translate(144, 240) scale(2)" fill="rgba(3, 142, 123, 1)"></use><use xlink:href="#SvgjsG1120" transform="translate(144, 288) scale(2)" fill="rgba(3, 142, 123, 1)"></use><use xlink:href="#SvgjsG1123" transform="translate(144, 336) scale(2)" fill="rgba(3, 142, 123, 1)"></use><use xlink:href="#SvgjsG1125" transform="translate(144, 384) scale(2)" fill="rgba(3, 142, 123, 1)"></use><use xlink:href="#SvgjsG1121" transform="translate(144, 432) scale(2)" fill="rgba(3, 142, 123, 1)"></use><use xlink:href="#SvgjsG1121" transform="translate(192, 0) scale(2)" fill="rgba(3, 142, 123, 1)"></use><use xlink:href="#SvgjsG1118" transform="translate(192, 48) scale(2)" fill="rgba(3, 142, 123, 1)"></use><use xlink:href="#SvgjsG1120" transform="translate(192, 96) scale(2)" fill="rgba(3, 142, 123, 1)"></use><use xlink:href="#SvgjsG1123" transform="translate(192, 144) scale(2)" fill="rgba(3, 142, 123, 1)"></use><use xlink:href="#SvgjsG1120" transform="translate(192, 192) scale(2)" fill="rgba(3, 142, 123, 1)"></use><use xlink:href="#SvgjsG1121" transform="translate(192, 240) scale(2)" fill="rgba(3, 142, 123, 1)"></use><use xlink:href="#SvgjsG1124" transform="translate(192, 288) scale(2)" fill="rgba(3, 142, 123, 1)"></use><use xlink:href="#SvgjsG1122" transform="translate(192, 336) scale(2)" fill="rgba(3, 142, 123, 1)"></use><use xlink:href="#SvgjsG1119" transform="translate(192, 384) scale(2)" fill="rgba(3, 142, 123, 1)"></use><use xlink:href="#SvgjsG1121" transform="translate(192, 432) scale(2)" fill="rgba(3, 142, 123, 1)"></use><use xlink:href="#SvgjsG1123" transform="translate(240, 0) scale(2)" fill="rgba(3, 142, 123, 1)"></use><use xlink:href="#SvgjsG1125" transform="translate(240, 48) scale(2)" fill="rgba(3, 142, 123, 1)"></use><use xlink:href="#SvgjsG1123" transform="translate(240, 96) scale(2)" fill="rgba(3, 142, 123, 1)"></use><use xlink:href="#SvgjsG1119" transform="translate(240, 144) scale(2)" fill="rgba(3, 142, 123, 1)"></use><use xlink:href="#SvgjsG1125" transform="translate(240, 192) scale(2)" fill="rgba(3, 142, 123, 1)"></use><use xlink:href="#SvgjsG1119" transform="translate(240, 240) scale(2)" fill="rgba(3, 142, 123, 1)"></use><use xlink:href="#SvgjsG1120" transform="translate(240, 288) scale(2)" fill="rgba(3, 142, 123, 1)"></use><use xlink:href="#SvgjsG1125" transform="translate(240, 336) scale(2)" fill="rgba(3, 142, 123, 1)"></use><use xlink:href="#SvgjsG1125" transform="translate(240, 384) scale(2)" fill="rgba(3, 142, 123, 1)"></use><use xlink:href="#SvgjsG1120" transform="translate(240, 432) scale(2)" fill="rgba(3, 142, 123, 1)"></use><use xlink:href="#SvgjsG1119" transform="translate(288, 0) scale(2)" fill="rgba(3, 142, 123, 1)"></use><use xlink:href="#SvgjsG1125" transform="translate(288, 48) scale(2)" fill="rgba(3, 142, 123, 1)"></use><use xlink:href="#SvgjsG1123" transform="translate(288, 96) scale(2)" fill="rgba(3, 142, 123, 1)"></use><use xlink:href="#SvgjsG1119" transform="translate(288, 144) scale(2)" fill="rgba(3, 142, 123, 1)"></use><use xlink:href="#SvgjsG1118" transform="translate(288, 192) scale(2)" fill="rgba(3, 142, 123, 1)"></use><use xlink:href="#SvgjsG1118" transform="translate(288, 240) scale(2)" fill="rgba(3, 142, 123, 1)"></use><use xlink:href="#SvgjsG1119" transform="translate(288, 288) scale(2)" fill="rgba(3, 142, 123, 1)"></use><use xlink:href="#SvgjsG1119" transform="translate(288, 336) scale(2)" fill="rgba(3, 142, 123, 1)"></use><use xlink:href="#SvgjsG1122" transform="translate(288, 384) scale(2)" fill="rgba(3, 142, 123, 1)"></use><use xlink:href="#SvgjsG1118" transform="translate(288, 432) scale(2)" fill="rgba(3, 142, 123, 1)"></use><use xlink:href="#SvgjsG1124" transform="translate(336, 0) scale(2)" fill="rgba(3, 142, 123, 1)"></use><use xlink:href="#SvgjsG1121" transform="translate(336, 48) scale(2)" fill="rgba(3, 142, 123, 1)"></use><use xlink:href="#SvgjsG1118" transform="translate(336, 96) scale(2)" fill="rgba(3, 142, 123, 1)"></use><use xlink:href="#SvgjsG1120" transform="translate(336, 144) scale(2)" fill="rgba(3, 142, 123, 1)"></use><use xlink:href="#SvgjsG1125" transform="translate(336, 192) scale(2)" fill="rgba(3, 142, 123, 1)"></use><use xlink:href="#SvgjsG1123" transform="translate(336, 240) scale(2)" fill="rgba(3, 142, 123, 1)"></use><use xlink:href="#SvgjsG1121" transform="translate(336, 288) scale(2)" fill="rgba(3, 142, 123, 1)"></use><use xlink:href="#SvgjsG1120" transform="translate(336, 336) scale(2)" fill="rgba(3, 142, 123, 1)"></use><use xlink:href="#SvgjsG1121" transform="translate(336, 384) scale(2)" fill="rgba(3, 142, 123, 1)"></use><use xlink:href="#SvgjsG1119" transform="translate(336, 432) scale(2)" fill="rgba(3, 142, 123, 1)"></use><use xlink:href="#SvgjsG1124" transform="translate(384, 0) scale(2)" fill="rgba(3, 142, 123, 1)"></use><use xlink:href="#SvgjsG1123" transform="translate(384, 48) scale(2)" fill="rgba(3, 142, 123, 1)"></use><use xlink:href="#SvgjsG1124" transform="translate(384, 96) scale(2)" fill="rgba(3, 142, 123, 1)"></use><use xlink:href="#SvgjsG1125" transform="translate(384, 144) scale(2)" fill="rgba(3, 142, 123, 1)"></use><use xlink:href="#SvgjsG1121" transform="translate(384, 192) scale(2)" fill="rgba(3, 142, 123, 1)"></use><use xlink:href="#SvgjsG1121" transform="translate(384, 240) scale(2)" fill="rgba(3, 142, 123, 1)"></use><use xlink:href="#SvgjsG1119" transform="translate(384, 288) scale(2)" fill="rgba(3, 142, 123, 1)"></use><use xlink:href="#SvgjsG1123" transform="translate(384, 336) scale(2)" fill="rgba(3, 142, 123, 1)"></use><use xlink:href="#SvgjsG1118" transform="translate(384, 384) scale(2)" fill="rgba(3, 142, 123, 1)"></use><use xlink:href="#SvgjsG1123" transform="translate(384, 432) scale(2)" fill="rgba(3, 142, 123, 1)"></use><use xlink:href="#SvgjsG1122" transform="translate(432, 0) scale(2)" fill="rgba(3, 142, 123, 1)"></use><use xlink:href="#SvgjsG1125" transform="translate(432, 48) scale(2)" fill="rgba(3, 142, 123, 1)"></use><use xlink:href="#SvgjsG1120" transform="translate(432, 96) scale(2)" fill="rgba(3, 142, 123, 1)"></use><use xlink:href="#SvgjsG1120" transform="translate(432, 144) scale(2)" fill="rgba(3, 142, 123, 1)"></use><use xlink:href="#SvgjsG1118" transform="translate(432, 192) scale(2)" fill="rgba(3, 142, 123, 1)"></use><use xlink:href="#SvgjsG1121" transform="translate(432, 240) scale(2)" fill="rgba(3, 142, 123, 1)"></use><use xlink:href="#SvgjsG1125" transform="translate(432, 288) scale(2)" fill="rgba(3, 142, 123, 1)"></use><use xlink:href="#SvgjsG1118" transform="translate(432, 336) scale(2)" fill="rgba(3, 142, 123, 1)"></use><use xlink:href="#SvgjsG1119" transform="translate(432, 384) scale(2)" fill="rgba(3, 142, 123, 1)"></use><use xlink:href="#SvgjsG1120" transform="translate(432, 432) scale(2)" fill="rgba(3, 142, 123, 1)"></use></g></defs></svg>